<svg xmlns="http://www.w3.org/2000/svg" width="23.401" height="23" viewBox="0 0 23.401 23">
  <path id="instagram-brands" d="M11.628,37.428a5.9,5.9,0,1,0,0,11.794,5.9,5.9,0,1,0,0-11.794Zm0,9.731a3.834,3.834,0,1,1,3.9-3.834,3.874,3.874,0,0,1-3.9,3.834Zm7.643-9.972a1.4,1.4,0,1,1-1.4-1.375A1.384,1.384,0,0,1,19.271,37.187Zm3.973,1.4a6.743,6.743,0,0,0-1.89-4.819,7.037,7.037,0,0,0-4.9-1.858c-1.932-.108-7.721-.108-9.653,0a7.027,7.027,0,0,0-4.9,1.853,6.765,6.765,0,0,0-1.89,4.819c-.11,1.9-.11,7.591,0,9.489A6.743,6.743,0,0,0,1.9,52.886a7.046,7.046,0,0,0,4.9,1.858c1.932.108,7.721.108,9.653,0a6.991,6.991,0,0,0,4.9-1.858,6.787,6.787,0,0,0,1.89-4.819C23.354,46.168,23.354,40.482,23.244,38.583ZM20.749,50.1a3.915,3.915,0,0,1-2.224,2.186c-1.54.6-5.195.462-6.9.462s-5.362.133-6.9-.462A3.915,3.915,0,0,1,2.508,50.1c-.611-1.514-.47-5.107-.47-6.78s-.136-5.271.47-6.78a3.915,3.915,0,0,1,2.224-2.186c1.54-.6,5.195-.462,6.9-.462s5.362-.133,6.9.462a3.915,3.915,0,0,1,2.224,2.186c.611,1.514.47,5.107.47,6.78S21.36,48.6,20.749,50.1Z" transform="translate(0.075 -31.825)" fill="#fff" opacity="0.7"/>
</svg>
